<?xml version="1.0" encoding="utf-8"?>
<!-- Generator: Adobe Illustrator 24.1.2, SVG Export Plug-In . SVG Version: 6.00 Build 0)  -->
<svg version="1.1" id="Calque_1" xmlns="http://www.w3.org/2000/svg" xmlns:xlink="http://www.w3.org/1999/xlink" x="0px" y="0px"
	 viewBox="0 0 187.03 100" style="enable-background:new 0 0 187.03 100;" xml:space="preserve">
<style type="text/css">
	.st0{fill:#020203;}
	.st1{fill:#010202;}
	.st2{fill:#FFFFFF;stroke:#000000;stroke-miterlimit:10;}
	.st3{fill:#020304;}
	.st4{fill:#FFFFFF;}
	.st5{fill:#FDFDFD;}
</style>
<rect x="0" class="st0" width="187.03" height="100"/>
<path class="st4" d="M49.71,8.99v37.59h44.71V8.99H49.71z M88.05,13.91c-0.51,0.14-0.87,0.33-1.07,0.56c-0.2,0.23-0.3,0.56-0.3,0.99
	v24.79c0,0.44,0.1,0.78,0.3,1.01c0.2,0.23,0.56,0.42,1.07,0.56v0.69h-9.22v-0.69c0.6-0.13,0.9-0.44,0.9-0.92
	c0-0.29-0.35-0.79-1.05-1.5L62.27,22.45v17.8c0,0.44,0.1,0.78,0.3,1.01c0.2,0.23,0.56,0.42,1.07,0.56v0.69h-8.6v-0.69
	c0.52-0.14,0.87-0.33,1.07-0.56c0.2-0.23,0.3-0.56,0.3-1.01V15.46c0-0.43-0.1-0.76-0.3-0.99c-0.2-0.23-0.56-0.41-1.07-0.56v-0.69H65
	v0.69c-0.61,0.16-0.92,0.49-0.92,0.99c0,0.34,0.2,0.72,0.6,1.14l16.15,16.79V15.46c0-0.43-0.1-0.76-0.3-0.99
	c-0.2-0.23-0.56-0.41-1.07-0.56v-0.69h8.6V13.91z"/>
<path class="st4" d="M132.7,13.89l-3.93,7.75l-0.68-0.39c0.02-0.16,0.02-0.29,0.02-0.39c0-0.55-0.47-1.13-1.4-1.76
	c-2.86-1.99-6.22-2.99-10.08-2.99c-1.7,0-3.21,0.21-4.51,0.63c-0.95,0.32-1.72,0.8-2.3,1.44c-0.59,0.64-0.88,1.34-0.88,2.1
	c0,1.24,0.75,2.08,2.24,2.53c0.77,0.22,2.43,0.47,4.97,0.72l3.79,0.39c2.25,0.24,4.07,0.57,5.46,0.99c1.39,0.42,2.62,1,3.7,1.76
	c1.09,0.79,1.96,1.82,2.59,3.11c0.63,1.29,0.95,2.66,0.95,4.12c0,2.31-0.75,4.37-2.24,6.17c-1.35,1.64-3.45,2.85-6.29,3.64
	c-2.12,0.59-4.4,0.89-6.82,0.89c-4.36,0-8.65-1.04-12.9-3.13c-0.9-0.42-1.44-0.63-1.62-0.63c-0.21,0-0.54,0.18-0.99,0.53l-0.7-0.36
	l3.57-8.08l0.7,0.34v0.31c0,0.72,0.35,1.39,1.04,2c1.04,0.93,2.66,1.74,4.85,2.41c2.19,0.67,4.26,1.01,6.22,1.01
	c2.14,0,3.96-0.36,5.47-1.08c0.84-0.4,1.5-0.93,2-1.6c0.5-0.67,0.75-1.36,0.75-2.08c0-1.09-0.59-1.87-1.76-2.33
	c-0.82-0.32-2.47-0.62-4.97-0.89l-3.71-0.38c-2.49-0.26-4.25-0.5-5.28-0.74c-1.03-0.23-2.06-0.61-3.09-1.12
	c-1.46-0.72-2.61-1.81-3.45-3.26c-0.76-1.3-1.13-2.8-1.13-4.49c0-2.78,0.96-5.08,2.87-6.9c2.51-2.4,6.27-3.59,11.28-3.59
	c2.11,0,4.07,0.21,5.88,0.64c1.82,0.43,4.08,1.21,6.8,2.36c0.93,0.37,1.5,0.56,1.71,0.56c0.34,0,0.73-0.19,1.18-0.56L132.7,13.89z"
	/>
<g>
	<path class="st4" d="M40.3,66.74c-1.14,0-2.09,0.34-2.85,1.01c-0.9,0.8-1.35,1.84-1.35,3.14s0.45,2.34,1.35,3.14
		c0.76,0.68,1.71,1.01,2.86,1.01c1.15,0,2.1-0.34,2.86-1.01c0.45-0.4,0.79-0.89,1.03-1.48c0.21-0.52,0.32-1.05,0.32-1.61
		c0-1.35-0.45-2.42-1.35-3.19C42.41,67.09,41.45,66.75,40.3,66.74z"/>
	<path class="st4" d="M59.13,69.36c0.31-0.23,0.46-0.59,0.46-1.08c0-0.5-0.15-0.86-0.44-1.07c-0.29-0.21-0.78-0.32-1.48-0.32H53.1
		v2.78h4.58C58.37,69.67,58.86,69.57,59.13,69.36z"/>
	<path class="st4" d="M59.31,71.98c-0.36-0.23-0.95-0.34-1.78-0.34H53.1v3.25h4.43c0.82,0,1.41-0.11,1.78-0.34
		c0.41-0.26,0.62-0.69,0.62-1.29C59.93,72.67,59.72,72.25,59.31,71.98z"/>
	<path class="st4" d="M13.6,61.9v18.24h80.29V61.9H13.6z M30.68,65.2c-0.21,0.06-0.36,0.13-0.44,0.23c-0.08,0.09-0.12,0.23-0.12,0.4
		v10.11c0,0.18,0.04,0.32,0.12,0.41s0.23,0.17,0.44,0.23v0.28h-3.76v-0.28c0.25-0.05,0.37-0.18,0.37-0.38
		c0-0.12-0.14-0.32-0.43-0.61l-6.69-6.91v7.26c0,0.18,0.04,0.32,0.12,0.41c0.08,0.09,0.23,0.17,0.44,0.23v0.28h-3.51v-0.28
		c0.21-0.06,0.36-0.13,0.44-0.23c0.08-0.09,0.12-0.23,0.12-0.41V65.83c0-0.18-0.04-0.31-0.12-0.4c-0.08-0.09-0.23-0.17-0.44-0.23
		v-0.28h4.06v0.28c-0.25,0.06-0.38,0.2-0.38,0.4c0,0.14,0.08,0.29,0.24,0.46l6.59,6.85v-7.09c0-0.18-0.04-0.31-0.12-0.4
		c-0.08-0.09-0.23-0.17-0.44-0.23v-0.28h3.51V65.2z M46.26,74.16c-1.21,1.94-3.19,2.9-5.94,2.9c-2.07,0-3.71-0.56-4.93-1.69
		c-0.65-0.6-1.15-1.32-1.49-2.16c-0.3-0.74-0.45-1.52-0.45-2.34c0-1.2,0.31-2.29,0.92-3.28c1.17-1.9,3.15-2.86,5.93-2.9
		c2.08,0,3.74,0.56,4.96,1.69c1.29,1.18,1.94,2.7,1.94,4.57C47.19,72.11,46.88,73.17,46.26,74.16z M61.41,75.98
		c-0.4,0.31-0.86,0.53-1.38,0.67c-0.52,0.14-1.17,0.21-1.94,0.21h-8.16v-0.28c0.21-0.06,0.36-0.13,0.44-0.23
		c0.08-0.09,0.12-0.23,0.12-0.41v-10.1c0-0.18-0.04-0.32-0.12-0.41c-0.08-0.09-0.23-0.17-0.44-0.23v-0.28h8.08
		c0.78,0,1.4,0.06,1.87,0.18s0.89,0.31,1.24,0.59c0.71,0.55,1.06,1.35,1.06,2.4c0,1.17-0.54,2.01-1.62,2.52
		c1.34,0.51,2.01,1.45,2.01,2.82C62.59,74.51,62.2,75.37,61.41,75.98z M76.68,77.42H76.4c-0.06-0.21-0.13-0.36-0.23-0.44
		c-0.09-0.08-0.23-0.12-0.41-0.12H65.26v-0.28c0.21-0.06,0.36-0.13,0.44-0.23c0.08-0.09,0.12-0.23,0.12-0.41v-10.1
		c0-0.18-0.04-0.32-0.12-0.41c-0.08-0.09-0.23-0.17-0.44-0.23v-0.28h3.73v0.28c-0.21,0.05-0.36,0.13-0.44,0.22
		c-0.08,0.1-0.12,0.23-0.12,0.42v9.05h7.34c0.18,0,0.32-0.04,0.41-0.12c0.09-0.08,0.17-0.23,0.23-0.44h0.28V77.42z M90.57,77.42
		h-0.28c-0.06-0.21-0.13-0.36-0.23-0.44c-0.09-0.08-0.23-0.12-0.4-0.12H78.81v-0.28c0.21-0.06,0.36-0.13,0.44-0.23
		s0.12-0.23,0.12-0.41v-10.1c0-0.18-0.04-0.32-0.12-0.41c-0.08-0.09-0.23-0.17-0.44-0.23v-0.28h10.64c0.18,0,0.31-0.04,0.4-0.12
		c0.09-0.08,0.17-0.23,0.23-0.44h0.28v3.09h-0.28c-0.06-0.21-0.13-0.35-0.23-0.44c-0.09-0.08-0.23-0.12-0.4-0.12h-7.47v2.83h4.85
		c0.17,0,0.31-0.04,0.4-0.12c0.09-0.08,0.17-0.23,0.23-0.44h0.28v3.02h-0.28c-0.06-0.2-0.13-0.35-0.23-0.43
		c-0.09-0.08-0.23-0.13-0.4-0.13h-4.85v3.27h7.68c0.18,0,0.31-0.04,0.4-0.12s0.17-0.23,0.23-0.44h0.28V77.42z"/>
</g>
<g>
	<g>
		<path class="st5" d="M111.75,65.93l-1.43,2.81l-0.25-0.14c0.01-0.06,0.01-0.1,0.01-0.14c0-0.2-0.17-0.41-0.51-0.64
			c-1.04-0.72-2.26-1.08-3.66-1.08c-0.62,0-1.16,0.08-1.64,0.23c-0.34,0.12-0.62,0.29-0.83,0.52c-0.21,0.23-0.32,0.49-0.32,0.76
			c0,0.45,0.27,0.75,0.81,0.92c0.28,0.08,0.88,0.17,1.8,0.26l1.37,0.14c0.82,0.09,1.48,0.21,1.98,0.36c0.5,0.15,0.95,0.36,1.34,0.64
			c0.4,0.29,0.71,0.66,0.94,1.13c0.23,0.47,0.34,0.96,0.34,1.5c0,0.84-0.27,1.58-0.81,2.24c-0.49,0.59-1.25,1.03-2.28,1.32
			c-0.77,0.22-1.6,0.32-2.48,0.32c-1.58,0-3.14-0.38-4.68-1.14c-0.33-0.15-0.52-0.23-0.59-0.23c-0.08,0-0.2,0.06-0.36,0.19
			l-0.25-0.13l1.29-2.93l0.25,0.12c0,0.05,0,0.09,0,0.11c0,0.26,0.13,0.5,0.38,0.73c0.38,0.34,0.97,0.63,1.76,0.88
			c0.79,0.24,1.54,0.37,2.26,0.37c0.78,0,1.44-0.13,1.99-0.39c0.3-0.15,0.54-0.34,0.73-0.58c0.18-0.24,0.27-0.49,0.27-0.76
			c0-0.4-0.21-0.68-0.64-0.85c-0.3-0.12-0.9-0.22-1.8-0.32L105.42,72c-0.9-0.09-1.54-0.18-1.92-0.27s-0.75-0.22-1.12-0.41
			c-0.53-0.26-0.95-0.66-1.25-1.18c-0.27-0.47-0.41-1.02-0.41-1.63c0-1.01,0.35-1.84,1.04-2.5c0.91-0.87,2.28-1.3,4.09-1.3
			c0.76,0,1.48,0.08,2.13,0.23s1.48,0.44,2.47,0.86c0.34,0.13,0.55,0.2,0.62,0.2c0.12,0,0.26-0.07,0.43-0.2L111.75,65.93z"/>
		<path class="st5" d="M117.59,71.62v3.27h7.68c0.17,0,0.31-0.04,0.4-0.12c0.09-0.08,0.17-0.23,0.23-0.44h0.28v3.09h-0.28
			c-0.06-0.21-0.13-0.36-0.23-0.44c-0.09-0.08-0.23-0.12-0.4-0.12h-10.85v-0.28c0.21-0.06,0.36-0.13,0.44-0.23
			c0.08-0.09,0.12-0.23,0.12-0.41v-10.1c0-0.18-0.04-0.32-0.12-0.41c-0.08-0.09-0.23-0.17-0.44-0.23v-0.28h10.64
			c0.17,0,0.31-0.04,0.4-0.12c0.09-0.08,0.17-0.23,0.23-0.44h0.28v3.09h-0.28c-0.06-0.21-0.13-0.35-0.23-0.44
			c-0.09-0.08-0.23-0.12-0.4-0.12h-7.47v2.83h4.85c0.17,0,0.31-0.04,0.4-0.12c0.09-0.08,0.17-0.23,0.23-0.44h0.28v3.02h-0.28
			c-0.06-0.2-0.13-0.35-0.23-0.43s-0.23-0.13-0.4-0.13H117.59z"/>
		<path class="st5" d="M131.86,68.68v7.26c0,0.18,0.04,0.32,0.12,0.41s0.23,0.17,0.44,0.23v0.28h-3.51v-0.28
			c0.21-0.06,0.36-0.13,0.44-0.23c0.08-0.09,0.12-0.23,0.12-0.41V65.83c0-0.18-0.04-0.31-0.12-0.4c-0.08-0.09-0.23-0.17-0.44-0.23
			v-0.28h4.06v0.28c-0.25,0.06-0.38,0.2-0.38,0.4c0,0.14,0.08,0.29,0.24,0.46l6.59,6.85v-7.09c0-0.18-0.04-0.31-0.12-0.4
			c-0.08-0.09-0.23-0.17-0.44-0.23v-0.28h3.51v0.28c-0.21,0.06-0.36,0.13-0.44,0.23c-0.08,0.09-0.12,0.23-0.12,0.4v10.11
			c0,0.18,0.04,0.32,0.12,0.41c0.08,0.09,0.23,0.17,0.44,0.23v0.28h-3.76v-0.28c0.25-0.05,0.37-0.18,0.37-0.38
			c0-0.12-0.14-0.32-0.43-0.61L131.86,68.68z"/>
		<path class="st5" d="M156.52,65.93l-1.43,2.81l-0.25-0.14c0.01-0.06,0.01-0.1,0.01-0.14c0-0.2-0.17-0.41-0.51-0.64
			c-1.04-0.72-2.26-1.08-3.66-1.08c-0.62,0-1.16,0.08-1.64,0.23c-0.34,0.12-0.62,0.29-0.84,0.52c-0.21,0.23-0.32,0.49-0.32,0.76
			c0,0.45,0.27,0.75,0.81,0.92c0.28,0.08,0.88,0.17,1.8,0.26l1.37,0.14c0.82,0.09,1.48,0.21,1.98,0.36c0.5,0.15,0.95,0.36,1.34,0.64
			c0.4,0.29,0.71,0.66,0.94,1.13s0.35,0.96,0.35,1.5c0,0.84-0.27,1.58-0.81,2.24c-0.49,0.59-1.25,1.03-2.28,1.32
			c-0.77,0.22-1.59,0.32-2.48,0.32c-1.58,0-3.14-0.38-4.68-1.14c-0.33-0.15-0.52-0.23-0.59-0.23c-0.08,0-0.2,0.06-0.36,0.19
			l-0.25-0.13l1.29-2.93l0.25,0.12c0,0.05,0,0.09,0,0.11c0,0.26,0.13,0.5,0.38,0.73c0.38,0.34,0.96,0.63,1.76,0.88
			c0.79,0.24,1.55,0.37,2.26,0.37c0.78,0,1.44-0.13,1.99-0.39c0.3-0.15,0.54-0.34,0.73-0.58s0.27-0.49,0.27-0.76
			c0-0.4-0.21-0.68-0.64-0.85c-0.3-0.12-0.9-0.22-1.8-0.32L150.19,72c-0.9-0.09-1.54-0.18-1.92-0.27s-0.75-0.22-1.12-0.41
			c-0.53-0.26-0.95-0.66-1.25-1.18c-0.27-0.47-0.41-1.02-0.41-1.63c0-1.01,0.35-1.84,1.04-2.5c0.91-0.87,2.27-1.3,4.09-1.3
			c0.76,0,1.48,0.08,2.13,0.23c0.66,0.16,1.48,0.44,2.47,0.86c0.34,0.13,0.54,0.2,0.62,0.2c0.12,0,0.27-0.07,0.43-0.2L156.52,65.93z
			"/>
		<path class="st5" d="M162.36,71.62v3.27h7.68c0.17,0,0.31-0.04,0.4-0.12c0.09-0.08,0.17-0.23,0.23-0.44h0.28v3.09h-0.28
			c-0.06-0.21-0.13-0.36-0.23-0.44c-0.09-0.08-0.23-0.12-0.4-0.12h-10.85v-0.28c0.21-0.06,0.36-0.13,0.44-0.23
			c0.08-0.09,0.12-0.23,0.12-0.41v-10.1c0-0.18-0.04-0.32-0.12-0.41c-0.08-0.09-0.23-0.17-0.44-0.23v-0.28h10.64
			c0.17,0,0.31-0.04,0.4-0.12c0.09-0.08,0.17-0.23,0.23-0.44h0.28v3.09h-0.28c-0.06-0.21-0.13-0.35-0.23-0.44
			c-0.09-0.08-0.23-0.12-0.4-0.12h-7.47v2.83h4.85c0.17,0,0.31-0.04,0.4-0.12c0.09-0.08,0.17-0.23,0.23-0.44h0.28v3.02h-0.28
			c-0.06-0.2-0.13-0.35-0.23-0.43s-0.23-0.13-0.4-0.13H162.36z"/>
	</g>
</g>
<g>
	<g>
		<path class="st5" d="M62.34,83.96v2.75c0,0.52-0.1,0.91-0.29,1.17c-0.35,0.47-1.06,0.7-2.14,0.7c-0.78,0-1.38-0.13-1.79-0.38
			c-0.24-0.15-0.41-0.35-0.5-0.6c-0.09-0.25-0.14-0.55-0.14-0.89v-2.75c0-0.07-0.02-0.13-0.05-0.17c-0.03-0.04-0.09-0.07-0.18-0.09
			v-0.11h1.53v0.11c-0.08,0.02-0.15,0.05-0.18,0.09s-0.05,0.1-0.05,0.17v2.45c0,0.28,0.02,0.49,0.05,0.63
			c0.03,0.14,0.09,0.25,0.18,0.34c0.23,0.24,0.62,0.37,1.18,0.37c0.56,0,0.95-0.12,1.18-0.37c0.08-0.09,0.14-0.2,0.17-0.34
			c0.03-0.14,0.05-0.34,0.05-0.63v-2.45c0-0.07-0.02-0.13-0.05-0.17c-0.03-0.04-0.09-0.07-0.18-0.09v-0.11h1.45v0.11
			c-0.09,0.02-0.15,0.06-0.18,0.09C62.36,83.83,62.34,83.89,62.34,83.96z"/>
		<path class="st5" d="M67.87,85.13v2.99c0,0.07,0.02,0.13,0.05,0.17c0.03,0.04,0.09,0.07,0.18,0.09v0.12h-1.44v-0.12
			c0.09-0.02,0.15-0.06,0.18-0.09c0.03-0.04,0.05-0.09,0.05-0.17v-4.16c0-0.07-0.02-0.13-0.05-0.17c-0.03-0.04-0.09-0.07-0.18-0.09
			v-0.11h1.67v0.11c-0.1,0.03-0.15,0.08-0.15,0.17c0,0.06,0.03,0.12,0.1,0.19l2.71,2.82v-2.91c0-0.07-0.02-0.13-0.05-0.17
			c-0.03-0.04-0.09-0.07-0.18-0.09v-0.11h1.44v0.11c-0.09,0.02-0.15,0.06-0.18,0.09c-0.03,0.04-0.05,0.09-0.05,0.17v4.16
			c0,0.07,0.02,0.13,0.05,0.17c0.03,0.04,0.09,0.07,0.18,0.09v0.12h-1.55v-0.12c0.1-0.02,0.15-0.07,0.15-0.15
			c0-0.05-0.06-0.13-0.18-0.25L67.87,85.13z"/>
		<path class="st5" d="M76.6,88.12v-4.16c0-0.07-0.02-0.13-0.05-0.17c-0.03-0.04-0.09-0.07-0.18-0.09v-0.11h1.53v0.11
			c-0.09,0.02-0.15,0.05-0.18,0.09c-0.03,0.04-0.05,0.1-0.05,0.17v4.16c0,0.07,0.02,0.13,0.05,0.17c0.04,0.04,0.09,0.07,0.18,0.09
			v0.12h-1.53v-0.12c0.09-0.02,0.15-0.06,0.18-0.09C76.59,88.25,76.6,88.19,76.6,88.12z"/>
		<path class="st5" d="M84.51,87.07l1.3-2.88c0.06-0.12,0.08-0.22,0.08-0.28c0-0.1-0.08-0.17-0.24-0.2v-0.11h1.68v0.11
			c-0.11,0.01-0.18,0.04-0.22,0.09c-0.04,0.05-0.11,0.18-0.21,0.4l-1.7,3.67c-0.07,0.16-0.11,0.26-0.11,0.31
			c0,0.12,0.08,0.19,0.23,0.22v0.12h-1.69v-0.12c0.15-0.02,0.23-0.09,0.23-0.22c0-0.05-0.04-0.15-0.11-0.3l-1.7-3.67
			c-0.1-0.22-0.17-0.35-0.21-0.4c-0.04-0.05-0.11-0.08-0.22-0.09v-0.11h1.74v0.11c-0.16,0.03-0.24,0.1-0.24,0.2
			c0,0.07,0.03,0.16,0.08,0.28L84.51,87.07z"/>
		<path class="st5" d="M92.35,86.34v1.35h3.16c0.07,0,0.13-0.02,0.17-0.05c0.04-0.03,0.07-0.09,0.09-0.18h0.12v1.27h-0.12
			c-0.02-0.09-0.05-0.15-0.09-0.18s-0.09-0.05-0.17-0.05h-4.46v-0.12c0.09-0.02,0.15-0.06,0.18-0.09c0.03-0.04,0.05-0.09,0.05-0.17
			v-4.15c0-0.07-0.02-0.13-0.05-0.17c-0.03-0.04-0.09-0.07-0.18-0.09v-0.11h4.37c0.07,0,0.13-0.02,0.17-0.05
			c0.04-0.03,0.07-0.09,0.09-0.18h0.12v1.27h-0.12c-0.02-0.08-0.06-0.14-0.09-0.18s-0.09-0.05-0.17-0.05h-3.07v1.17h1.99
			c0.07,0,0.13-0.02,0.17-0.05c0.04-0.03,0.07-0.09,0.09-0.18h0.12v1.24h-0.12c-0.02-0.08-0.06-0.14-0.09-0.18
			c-0.04-0.03-0.09-0.05-0.17-0.05H92.35z"/>
		<path class="st5" d="M101.25,86.49v1.63c0,0.07,0.02,0.13,0.05,0.17s0.09,0.07,0.18,0.09v0.12h-1.53v-0.12
			c0.09-0.02,0.15-0.06,0.18-0.09c0.03-0.04,0.05-0.09,0.05-0.17v-4.16c0-0.07-0.02-0.13-0.05-0.17c-0.03-0.04-0.09-0.07-0.18-0.09
			v-0.11h3.07c0.37,0,0.67,0.02,0.89,0.06c0.22,0.04,0.41,0.12,0.57,0.23c0.19,0.13,0.33,0.29,0.42,0.51
			c0.09,0.21,0.13,0.43,0.13,0.66c0,0.8-0.44,1.27-1.33,1.41l0.95,1.36c0.17,0.24,0.29,0.39,0.37,0.46s0.17,0.11,0.29,0.11v0.12
			h-1.77v-0.12c0.12-0.02,0.18-0.06,0.18-0.13c0-0.04-0.06-0.15-0.17-0.31l-0.99-1.45H101.25z M101.25,85.68h1.65
			c0.25,0,0.42-0.01,0.52-0.02c0.1-0.01,0.19-0.04,0.28-0.09c0.18-0.1,0.27-0.28,0.27-0.53c0-0.26-0.09-0.43-0.27-0.53
			c-0.09-0.05-0.18-0.08-0.27-0.09c-0.1-0.01-0.27-0.02-0.52-0.02h-1.65V85.68z"/>
		<path class="st5" d="M113.77,84l-0.59,1.16l-0.1-0.06c0-0.02,0-0.04,0-0.06c0-0.08-0.07-0.17-0.21-0.26
			c-0.43-0.3-0.93-0.45-1.5-0.45c-0.25,0-0.48,0.03-0.67,0.09c-0.14,0.05-0.26,0.12-0.34,0.22c-0.09,0.1-0.13,0.2-0.13,0.31
			c0,0.18,0.11,0.31,0.33,0.38c0.12,0.03,0.36,0.07,0.74,0.11l0.56,0.06c0.34,0.04,0.61,0.08,0.81,0.15
			c0.21,0.06,0.39,0.15,0.55,0.26c0.16,0.12,0.29,0.27,0.39,0.46c0.1,0.19,0.14,0.4,0.14,0.61c0,0.35-0.11,0.65-0.33,0.92
			c-0.2,0.24-0.51,0.43-0.94,0.54c-0.32,0.09-0.66,0.13-1.02,0.13c-0.65,0-1.29-0.16-1.92-0.47c-0.13-0.06-0.21-0.09-0.24-0.09
			c-0.03,0-0.08,0.03-0.15,0.08l-0.1-0.05l0.53-1.2l0.1,0.05c0,0.02,0,0.04,0,0.05c0,0.11,0.05,0.21,0.15,0.3
			c0.16,0.14,0.4,0.26,0.72,0.36c0.33,0.1,0.63,0.15,0.93,0.15c0.32,0,0.59-0.05,0.82-0.16c0.12-0.06,0.22-0.14,0.3-0.24
			c0.07-0.1,0.11-0.2,0.11-0.31c0-0.16-0.09-0.28-0.26-0.35c-0.12-0.05-0.37-0.09-0.74-0.13l-0.55-0.06
			c-0.37-0.04-0.63-0.08-0.79-0.11c-0.15-0.03-0.31-0.09-0.46-0.17c-0.22-0.11-0.39-0.27-0.51-0.49c-0.11-0.19-0.17-0.42-0.17-0.67
			c0-0.42,0.14-0.76,0.43-1.03c0.37-0.36,0.93-0.54,1.68-0.54c0.31,0,0.61,0.03,0.88,0.1c0.27,0.06,0.61,0.18,1.01,0.35
			c0.14,0.06,0.22,0.08,0.26,0.08c0.05,0,0.11-0.03,0.18-0.08L113.77,84z"/>
		<path class="st5" d="M121.4,87.24h-2.23l-0.33,0.69c-0.05,0.1-0.07,0.17-0.07,0.23c0,0.11,0.08,0.18,0.24,0.22v0.12h-1.62v-0.12
			c0.1-0.02,0.17-0.05,0.22-0.1c0.05-0.05,0.11-0.14,0.17-0.28l1.81-3.77c0.06-0.12,0.09-0.22,0.09-0.29c0-0.11-0.07-0.19-0.21-0.24
			v-0.11h1.74v0.11c-0.14,0.04-0.21,0.11-0.21,0.21c0,0.07,0.02,0.15,0.07,0.24l1.87,3.78c0.08,0.16,0.15,0.27,0.21,0.33
			c0.06,0.06,0.14,0.1,0.24,0.12v0.12h-1.81v-0.12c0.16-0.03,0.24-0.1,0.24-0.22c0-0.05-0.02-0.13-0.07-0.22L121.4,87.24z
			 M121.09,86.57l-0.8-1.75l-0.81,1.75H121.09z"/>
		<path class="st5" d="M128.39,87.68h3.02c0.07,0,0.13-0.02,0.17-0.05c0.04-0.03,0.07-0.09,0.09-0.18h0.12v1.27h-0.12
			c-0.02-0.09-0.06-0.15-0.09-0.18s-0.09-0.05-0.17-0.05h-4.32v-0.12c0.09-0.02,0.15-0.06,0.18-0.09c0.03-0.04,0.05-0.09,0.05-0.17
			v-4.15c0-0.07-0.02-0.13-0.05-0.17c-0.03-0.04-0.09-0.07-0.18-0.09v-0.11h1.53v0.11c-0.09,0.02-0.15,0.05-0.18,0.09
			c-0.03,0.04-0.05,0.1-0.05,0.17V87.68z"/>
	</g>
</g>
<path class="st5" d="M175.24,61.9H13.6v18.24h161.64V61.9z M174.67,79.58H14.16V62.46h160.51V79.58z"/>
</svg>
