<svg xmlns="http://www.w3.org/2000/svg" xmlns:xlink="http://www.w3.org/1999/xlink" id="Calque_1" x="0px" y="0px" viewBox="0 0 115.47 14.05" style="enable-background:new 0 0 115.47 14.05;" xml:space="preserve">
<style type="text/css">
	.st0{fill:#63B340;}
	.st1{fill:#FFFFFF;}
</style>
<g>
	<path class="st0" d="M2.42,11.84h7.34v2.03H0v-13h9.49v2.02H2.42V11.84z M2.23,6.27h6.46v1.99H2.23V6.27z"></path>
	<path class="st0" d="M18.46,14.05c-0.99,0-1.91-0.16-2.76-0.49c-0.85-0.33-1.59-0.79-2.21-1.39c-0.63-0.6-1.11-1.31-1.46-2.13   c-0.35-0.82-0.52-1.71-0.52-2.68c0-0.96,0.17-1.86,0.52-2.67c0.35-0.82,0.84-1.53,1.47-2.13c0.63-0.6,1.37-1.07,2.21-1.39   c0.84-0.33,1.76-0.49,2.77-0.49c1.06,0,2.04,0.18,2.92,0.55c0.88,0.37,1.62,0.91,2.23,1.63l-1.56,1.47c-0.47-0.51-1-0.89-1.58-1.14   c-0.58-0.25-1.21-0.38-1.9-0.38s-1.3,0.11-1.87,0.33s-1.05,0.54-1.47,0.95c-0.42,0.41-0.74,0.89-0.97,1.45   c-0.23,0.56-0.34,1.17-0.34,1.84c0,0.67,0.11,1.28,0.34,1.84c0.23,0.56,0.55,1.04,0.97,1.45c0.41,0.41,0.9,0.72,1.47,0.95   c0.56,0.22,1.19,0.33,1.87,0.33s1.31-0.13,1.9-0.38c0.58-0.25,1.11-0.64,1.58-1.16l1.56,1.49c-0.61,0.71-1.35,1.25-2.23,1.62   C20.52,13.87,19.54,14.05,18.46,14.05z"></path>
	<path class="st0" d="M31.76,14.05c-1.02,0-1.95-0.17-2.8-0.5c-0.85-0.33-1.6-0.8-2.23-1.4c-0.63-0.6-1.12-1.31-1.47-2.12   c-0.35-0.81-0.52-1.7-0.52-2.67c0-0.96,0.17-1.85,0.52-2.67s0.84-1.52,1.47-2.12c0.63-0.6,1.38-1.07,2.23-1.4s1.78-0.5,2.79-0.5   c1.02,0,1.95,0.17,2.8,0.5s1.59,0.8,2.22,1.4c0.63,0.6,1.12,1.31,1.47,2.12s0.52,1.7,0.52,2.67c0,0.97-0.17,1.86-0.52,2.68   c-0.35,0.82-0.84,1.52-1.47,2.12c-0.63,0.59-1.37,1.06-2.22,1.39C33.69,13.89,32.77,14.05,31.76,14.05z M31.75,11.94   c0.66,0,1.26-0.11,1.82-0.33c0.56-0.22,1.04-0.54,1.45-0.96s0.73-0.9,0.96-1.45c0.23-0.55,0.34-1.16,0.34-1.83   c0-0.67-0.11-1.28-0.34-1.83c-0.23-0.55-0.55-1.03-0.96-1.45s-0.89-0.73-1.45-0.96C33.01,2.91,32.4,2.8,31.75,2.8   c-0.66,0-1.26,0.11-1.81,0.33c-0.55,0.22-1.03,0.54-1.45,0.96c-0.42,0.42-0.74,0.9-0.97,1.45c-0.23,0.55-0.34,1.16-0.34,1.83   c0,0.66,0.11,1.26,0.34,1.82c0.23,0.56,0.55,1.04,0.96,1.46c0.41,0.42,0.89,0.73,1.45,0.96C30.48,11.83,31.09,11.94,31.75,11.94z"></path>
	<path class="st1" d="M45.34,14.05c-1.02,0-1.99-0.15-2.92-0.44c-0.93-0.29-1.67-0.67-2.21-1.12l0.84-1.88   c0.52,0.41,1.16,0.75,1.93,1.02c0.77,0.27,1.55,0.41,2.36,0.41c0.68,0,1.23-0.07,1.65-0.22s0.73-0.35,0.93-0.6s0.3-0.54,0.3-0.86   c0-0.4-0.14-0.72-0.43-0.96c-0.29-0.24-0.65-0.43-1.11-0.58s-0.95-0.28-1.5-0.4c-0.55-0.12-1.1-0.27-1.65-0.44   c-0.55-0.17-1.05-0.38-1.5-0.65c-0.45-0.27-0.82-0.62-1.11-1.07c-0.29-0.45-0.43-1.02-0.43-1.71c0-0.71,0.19-1.35,0.57-1.94   c0.38-0.59,0.95-1.06,1.73-1.41c0.77-0.35,1.76-0.53,2.94-0.53c0.78,0,1.55,0.1,2.32,0.3c0.77,0.2,1.44,0.48,2.01,0.85L49.3,3.71   c-0.58-0.35-1.18-0.6-1.8-0.77c-0.62-0.17-1.21-0.25-1.78-0.25c-0.67,0-1.21,0.08-1.63,0.24c-0.42,0.16-0.72,0.37-0.91,0.63   c-0.19,0.26-0.29,0.56-0.29,0.89c0,0.4,0.14,0.71,0.42,0.96c0.28,0.24,0.64,0.43,1.1,0.57s0.96,0.27,1.51,0.4   c0.56,0.13,1.11,0.28,1.66,0.44s1.05,0.37,1.5,0.63c0.45,0.26,0.82,0.61,1.1,1.06s0.42,1.01,0.42,1.69c0,0.69-0.19,1.33-0.57,1.92   c-0.38,0.59-0.96,1.06-1.74,1.41C47.52,13.88,46.53,14.05,45.34,14.05z"></path>
	<path class="st1" d="M55.45,13.87V2.91h-4.31V0.87h11.03v2.04h-4.31v10.96H55.45z"></path>
	<path class="st1" d="M63.99,13.87v-13h5.35c1.15,0,2.14,0.19,2.96,0.56c0.82,0.37,1.46,0.9,1.9,1.6s0.67,1.52,0.67,2.47   c0,0.95-0.22,1.77-0.67,2.46s-1.08,1.21-1.9,1.58s-1.81,0.55-2.96,0.55h-4.01l1.08-1.1v4.88H63.99z M66.41,9.24l-1.08-1.15h3.9   c1.06,0,1.87-0.23,2.41-0.69c0.54-0.46,0.81-1.1,0.81-1.91c0-0.83-0.27-1.47-0.81-1.91c-0.54-0.45-1.34-0.67-2.41-0.67h-3.9   l1.08-1.19V9.24z M72.5,13.87l-3.29-4.72h2.58l3.31,4.72H72.5z"></path>
	<path class="st1" d="M83.16,14.05c-1.78,0-3.18-0.5-4.19-1.5c-1.01-1-1.51-2.45-1.51-4.35V0.87h2.42v7.25   c0,1.34,0.29,2.31,0.86,2.92c0.58,0.61,1.39,0.91,2.44,0.91c1.05,0,1.86-0.3,2.43-0.91c0.57-0.61,0.85-1.58,0.85-2.92V0.87h2.38   V8.2c0,1.89-0.5,3.34-1.51,4.35C86.32,13.55,84.93,14.05,83.16,14.05z"></path>
	<path class="st1" d="M98.25,14.05c-0.99,0-1.91-0.16-2.76-0.49c-0.85-0.33-1.58-0.79-2.21-1.39c-0.63-0.6-1.11-1.31-1.46-2.13   c-0.35-0.82-0.52-1.71-0.52-2.68c0-0.96,0.17-1.86,0.52-2.67c0.35-0.82,0.84-1.53,1.47-2.13c0.63-0.6,1.37-1.07,2.21-1.39   s1.77-0.49,2.77-0.49c1.07,0,2.04,0.18,2.92,0.55c0.88,0.37,1.62,0.91,2.23,1.63l-1.56,1.47c-0.47-0.51-1-0.89-1.58-1.14   c-0.58-0.25-1.21-0.38-1.9-0.38c-0.68,0-1.3,0.11-1.87,0.33s-1.05,0.54-1.47,0.95c-0.42,0.41-0.74,0.89-0.97,1.45   c-0.23,0.56-0.34,1.17-0.34,1.84c0,0.67,0.11,1.28,0.34,1.84c0.23,0.56,0.55,1.04,0.97,1.45c0.42,0.41,0.9,0.72,1.47,0.95   c0.56,0.22,1.19,0.33,1.87,0.33c0.68,0,1.31-0.13,1.9-0.38c0.58-0.25,1.11-0.64,1.58-1.16l1.56,1.49   c-0.61,0.71-1.35,1.25-2.23,1.62C100.3,13.87,99.32,14.05,98.25,14.05z"></path>
	<path class="st1" d="M108.22,13.87V2.91h-4.31V0.87h11.03v2.04h-4.31v10.96H108.22z"></path>
</g>
<g>
</g>
<g>
</g>
<g>
</g>
<g>
</g>
<g>
</g>
<g>
</g>
</svg>